<?xml version="1.0" encoding="UTF-8" standalone="no"?>
<!-- Generator: Adobe Illustrator 24.2.0, SVG Export Plug-In . SVG Version: 6.00 Build 0)  -->

<svg
   xmlns:dc="http://purl.org/dc/elements/1.1/"
   xmlns:cc="http://creativecommons.org/ns#"
   xmlns:rdf="http://www.w3.org/1999/02/22-rdf-syntax-ns#"
   xmlns:svg="http://www.w3.org/2000/svg"
   xmlns="http://www.w3.org/2000/svg"
   xmlns:sodipodi="http://sodipodi.sourceforge.net/DTD/sodipodi-0.dtd"
   xmlns:inkscape="http://www.inkscape.org/namespaces/inkscape"
   version="1.1"
   id="Layer_1"
   x="0px"
   y="0px"
   viewBox="0 0 714.4 739"
   style="enable-background:new 0 0 714.4 739;"
   xml:space="preserve"
   inkscape:version="0.91 r13725"
   sodipodi:docname="fox-6158745-colour.svg"><metadata
     id="metadata4538"><rdf:RDF><cc:Work
         rdf:about=""><dc:format>image/svg+xml</dc:format><dc:type
           rdf:resource="http://purl.org/dc/dcmitype/StillImage" /><dc:title></dc:title><dc:description>colour remix by j4p4n</dc:description><cc:license
           rdf:resource="http://creativecommons.org/publicdomain/zero/1.0/" /></cc:Work><cc:License
         rdf:about="http://creativecommons.org/publicdomain/zero/1.0/"><cc:permits
           rdf:resource="http://creativecommons.org/ns#Reproduction" /><cc:permits
           rdf:resource="http://creativecommons.org/ns#Distribution" /><cc:permits
           rdf:resource="http://creativecommons.org/ns#DerivativeWorks" /></cc:License></rdf:RDF></metadata><defs
     id="defs4536" /><sodipodi:namedview
     pagecolor="#ffffff"
     bordercolor="#666666"
     borderopacity="1"
     objecttolerance="10"
     gridtolerance="10"
     guidetolerance="10"
     inkscape:pageopacity="0"
     inkscape:pageshadow="2"
     inkscape:window-width="1916"
     inkscape:window-height="1035"
     id="namedview4534"
     showgrid="false"
     inkscape:zoom="1.5758648"
     inkscape:cx="357.20001"
     inkscape:cy="529.30573"
     inkscape:window-x="4"
     inkscape:window-y="1"
     inkscape:window-maximized="1"
     inkscape:current-layer="Layer_1" /><g
     id="g5097"><path
       id="path5087"
       d="M 436.21484 196.52148 C 435.69619 196.51696 435.86247 197.70212 436.75391 200.3418 C 438.15651 204.49513 437.95359 206.9 436.11719 207.88281 C 435.48434 208.2215 431.56237 208.94159 427.40039 209.48438 C 420.45481 210.3902 407.74475 212.66454 405.61523 213.38281 C 405.08966 213.56008 407.43151 215.51466 411.32617 218.14844 C 422.18478 225.49163 424.19005 227.91244 426.49219 236.45312 C 427.33479 239.5791 432.96037 245.97039 437.82422 249.33008 C 441.83982 252.10385 450.60195 256.29796 458.06055 259.01367 C 461.63554 260.31534 466.46306 262.52604 468.78711 263.92773 C 471.11115 265.32943 477.13674 268.30746 482.17773 270.54492 C 494.15348 275.86042 499.44806 278.54198 504.86523 282.03516 C 512.93364 287.23796 522.07333 297.12854 529.84961 309.07422 C 534.20144 315.75936 534.11691 317.53433 529.42188 318.16406 L 526.82812 318.51172 L 528.44141 322.71484 C 532.45984 333.18835 533.08773 335.69266 533.74609 343.84375 C 534.52141 353.44277 536.04531 358.82345 541.26367 370.38867 L 544.84375 378.32031 L 545.25781 371.02344 C 545.4864 367.00977 546.1492 360.86906 546.73047 357.37891 C 548.06174 349.38536 548.08824 340.21928 546.79492 334.64258 C 546.24501 332.27139 545.79492 328.19807 545.79492 325.58984 C 545.79492 320.13246 545.22442 318.95386 541.08398 315.85156 C 539.53122 314.68812 537.92466 312.92075 537.51172 311.92383 C 536.54826 309.59784 537.61431 307.85235 542 304.57812 C 543.738 303.28059 545.16016 302.04298 545.16016 301.82812 C 545.16016 301.61327 543.66045 300.74533 541.82812 299.90039 C 539.70937 298.92336 536.53389 296.42602 533.10352 293.03906 C 530.1369 290.10998 524.85342 285.21098 521.36328 282.15234 C 513.9631 275.66711 508.60897 270.29532 509.07812 269.82617 C 509.58028 269.32402 515.89124 271.33739 519.46094 273.13867 C 523.91713 275.38726 527.81293 278.13174 531.58203 281.67969 L 534.82031 284.72852 L 544.05078 277.90234 C 549.12821 274.14851 560.90673 265.5163 570.22461 258.71875 C 594.21668 241.2161 599.37202 236.99251 610.83789 225.45312 L 620.99219 215.23633 L 610.85352 214.91797 L 600.71289 214.60156 L 600.11914 212.9082 C 599.62705 211.50613 599.97956 210.26974 602.16797 205.70898 C 603.62126 202.68025 604.6506 199.94331 604.45508 199.62695 C 603.38027 197.88787 581.74483 203.43223 574.37305 207.33594 C 570.15477 209.56972 570.29093 209.17689 571.83008 214.66211 C 572.88891 218.43545 573.15474 220.718 572.91992 224 C 572.63318 228.00763 572.33281 228.75009 569.02539 233.61914 C 565.32737 239.06324 557.83411 246.70909 553.54297 249.41797 C 547.98751 252.92498 546.28571 253.14051 530.26953 252.34766 C 516.8622 251.68396 509.91142 250.95243 509.08008 250.12109 C 508.90223 249.94324 509.09188 249.46281 509.50195 249.05273 C 510.01714 248.53754 515.59276 248.19282 527.54492 247.93555 C 544.64793 247.56742 544.88413 247.54366 548.55078 245.84375 C 555.6675 242.54432 567.11056 229.56177 567.75586 224.05469 C 567.91528 222.69418 567.67988 219.34966 567.23242 216.62109 L 566.41797 211.6582 L 562.83789 214.22656 C 560.46277 215.92967 558.61284 217.93533 557.3418 220.1875 C 555.01219 224.31532 550.06899 228.88162 545.51562 231.10938 C 540.48651 233.5699 536.50994 233.73044 529.09375 231.77344 C 521.23655 229.70007 518.68523 228.39257 515.79883 224.95898 C 511.2663 219.56722 509.93644 218.63528 498.9043 213.12305 C 480.79594 204.07517 462.60422 198.73886 444.58008 197.18555 C 440.39191 196.82462 436.62822 196.52548 436.21484 196.52148 z M 186.21289 555.68359 L 181.18359 555.68945 C 173.55539 555.69806 156.17822 556.84456 147.2832 557.92578 C 137.26395 559.14366 123.78961 561.46719 123.84961 561.9668 C 123.87472 562.1759 127.08698 564.43032 130.98828 566.97656 C 134.88958 569.5228 140.00938 573.41259 142.36523 575.62109 C 145.86371 578.90077 146.64844 579.99537 146.64844 581.59766 C 146.64844 584.24111 145.67397 584.62455 137.69336 585.11914 C 122.00861 586.09118 110.53018 589.60145 100.06445 596.62695 C 95.627115 599.60568 92.638027 602.23511 94.296875 601.69922 C 102.4647 599.0606 110.42604 597.03406 111.51172 597.31836 C 112.25447 597.51286 113.19208 598.39738 113.5957 599.2832 C 114.99681 602.35831 113.46229 603.41706 102.40234 607.00781 C 96.868979 608.80428 89.070116 611.91592 85.070312 613.92383 C 65.604807 623.69559 48.640746 638.92014 35.773438 658.16602 C 29.980398 666.83078 18.464844 687.66715 18.464844 689.48438 C 18.464844 690.20356 28.953836 694.08868 36.867188 696.30078 C 44.127845 698.33041 46.166712 699.30541 46.707031 701.00781 C 47.418337 703.24893 46.42405 705.6106 42.572266 710.83398 C 40.514302 713.62477 39.031708 716.09767 39.277344 716.33008 C 39.52298 716.56248 52.573635 717.0624 68.279297 717.44141 C 83.984958 717.82041 99.405747 718.27735 102.54688 718.45508 C 107.9333 718.75988 160.1739 722.29233 166.32031 722.76758 C 167.89088 722.88901 173.95869 723.03861 179.80469 723.09961 L 190.43359 723.21094 L 190.43359 721.59766 C 190.43359 719.35705 192.34888 715.88102 195.7793 711.89062 L 198.69141 708.50195 L 196.06641 705.54492 C 192.47657 701.50185 191.39115 698.84351 192.36914 696.48242 C 193.38235 694.03633 195.49812 692.84573 206.29883 688.64453 C 218.22696 684.0048 227.24023 680.04539 227.24023 679.44531 C 227.24023 678.37993 217.24531 667.87112 204.24023 655.26172 C 181.01101 632.73925 175.61747 624.32947 181.44141 619.7168 C 182.82896 618.61784 183.71527 618.43312 186.31055 618.70508 C 190.87918 619.18382 199.25972 621.9779 206.87695 625.56055 C 210.51037 627.26947 213.60693 628.54152 213.75977 628.38867 C 214.27892 627.86952 206.90968 615.99114 202.14062 609.66016 C 197.56221 603.58226 192.62374 598.85578 176.98242 585.58203 C 173.94652 583.00567 171.19568 580.13006 170.86914 579.19336 C 169.63457 575.65186 173.589 568.70023 181.44336 560.60156 L 186.21289 555.68359 z "
       style="opacity:1;fill:#f2f2f2;fill-opacity:1;fill-rule:evenodd;stroke:#f2f2f2;stroke-width:3.17286086;stroke-linecap:round;stroke-linejoin:round;stroke-miterlimit:4;stroke-dasharray:none;stroke-opacity:1" /><path
       id="path5080"
       d="M 664.4043 38.507812 C 660.98883 38.507812 649.15151 40.403156 644.1543 41.75 C 641.53669 42.455498 636.53898 44.509548 633.04883 46.316406 C 624.73245 50.621814 616.39708 58.634692 613.11523 65.476562 C 611.94334 67.919666 610.29169 70.849477 609.44531 71.988281 C 607.19796 75.012123 605.24966 79.737559 602.60352 88.587891 C 599.89118 97.659676 599.95674 99.128454 603.31445 104.56836 C 606.23878 109.30615 607.31699 113.53671 607.7832 122.11133 C 608.1665 129.16087 608.15372 129.25 606.77539 129.25 C 605.15993 129.25 604.33138 127.5367 602.5625 120.54492 C 601.68696 117.08423 601.21279 116.12122 600.62695 116.60742 C 599.82492 117.27305 598.45951 115.6852 589.96875 104.21289 C 583.08537 94.91239 574.81224 87.329607 566.41797 82.625 C 564.6729 81.646966 561.36678 79.740129 559.07031 78.388672 C 554.3253 75.596281 543.83065 73.05454 534.37305 72.40625 C 531.40642 72.202897 528.23092 71.754313 527.31641 71.410156 C 525.60194 70.764955 524.21875 68.544525 524.21875 66.435547 C 524.21875 64.369032 523.1635 64.433444 519.34766 66.734375 C 515.22381 69.221038 511.11168 69.728867 509.35156 67.96875 C 508.15457 66.771756 508.14342 66.415219 509.11523 60.748047 C 509.53343 58.309455 509.68424 56.123696 509.44922 55.888672 C 509.21419 55.653648 506.3173 58.044836 503.01367 61.203125 C 492.31295 71.433081 489.27725 73.146579 463.31055 83.599609 C 451.78542 88.239111 451.49512 88.402516 446.71484 92.947266 C 441.854 97.568604 436.8305 104.19199 434.09961 109.58008 C 433.30359 111.15065 428.97115 121.85751 424.47266 133.375 C 419.97418 144.89249 414.99837 156.88621 413.41406 160.02734 C 409.65574 167.47873 402.39326 178.33146 396.64062 185.09375 C 390.05202 192.83874 386.98919 197.00849 387.40039 197.67383 C 387.59757 197.99287 390.40666 199.20728 393.64258 200.37305 C 401.85041 203.33003 403.82538 205.59568 401.31641 209.17773 C 400.29459 210.63659 400.30074 210.67808 401.47461 210.17773 C 404.93925 208.70098 413.99524 206.66726 421.2207 205.74414 C 433.32094 204.19821 432.30929 204.66659 431.23047 201.11133 C 430.02091 197.12524 430.06497 194.32921 431.35547 193.26172 C 432.7316 192.12339 443.25952 192.34829 452.4707 193.71289 C 461.92956 195.11419 477.18187 199.12268 485.64453 202.43164 C 492.56118 205.1361 504.70288 210.98826 508.67188 213.5293 C 509.71893 214.19964 510.77149 214.63758 511.00977 214.50391 C 511.24806 214.37024 511.75829 212.6238 512.14453 210.62305 C 512.53076 208.6223 512.97596 206.37792 513.13281 205.63477 C 513.32871 204.70656 514.46236 203.8648 516.75586 202.94727 C 523.1701 200.38121 528.45013 199.54834 536.59375 199.81641 C 543.08445 200.03007 544.72432 200.30492 547.69922 201.67969 C 552.43853 203.86984 555.23388 206.36939 556.85352 209.86523 L 558.21094 212.79688 L 561.52148 210.3457 C 564.91557 207.83173 565.34213 206.90543 564.14258 204.66406 C 563.3817 203.24233 563.86013 200.32227 564.85352 200.32227 C 565.40146 200.32227 567.67986 203.50272 568.16992 204.95117 C 568.26365 205.22819 570.49716 204.45798 573.13281 203.24023 C 581.92247 199.17916 593.4909 195.91795 602.76367 194.88672 C 606.1043 194.5152 606.94882 194.62681 608 195.57812 C 609.83577 197.23946 609.56217 200.11728 607.04688 205.63672 L 604.8418 210.47656 L 614.50391 210.47461 L 624.16406 210.47461 L 625.91016 207.36719 C 626.86995 205.65829 627.6543 203.90986 627.6543 203.48047 C 627.6543 203.05108 626.2649 200.80738 624.56641 198.49609 C 620.78875 193.35553 620.03906 191.95296 620.03906 190.01562 C 620.03906 187.54989 621.4378 186.34452 626.01758 184.85938 L 630.35547 183.45312 L 626.90234 179.35547 C 620.71493 172.01336 616.69478 166.43798 615.12305 163.01953 C 612.77717 157.91732 610.86403 145.75 612.4082 145.75 C 613.61792 145.75 630.60621 132.4944 636.41992 127.01367 C 643.46908 120.36826 652.60186 109.17368 654.0332 105.42578 C 656.17746 99.811126 652.75205 91.837635 646.375 87.603516 C 641.25908 84.206737 641.55992 83.175411 649.23047 77.820312 C 655.73869 73.276678 660.84839 67.76447 660.5293 65.632812 C 660.14087 63.038001 658.75484 62.938755 648.97461 64.798828 C 640.27698 66.453002 639.59586 66.498156 638.11719 65.529297 C 635.04104 63.513723 636.29088 60.391011 641.49609 57.095703 C 649.51067 52.021841 665.19689 40.771297 665.7832 39.675781 C 666.32965 38.654735 666.15379 38.507812 664.4043 38.507812 z M 347.27539 46.066406 C 346.01174 46.035698 345.26953 46.289191 345.26953 46.884766 C 345.26953 48.173338 346.47164 49.145354 353.85547 53.826172 C 357.35632 56.045456 361.05651 58.471645 362.07617 59.216797 L 363.92969 60.570312 L 358.39648 66.449219 C 355.35296 69.682333 352.9519 72.418692 353.0625 72.529297 C 353.17311 72.639902 355.96311 71.605698 359.26172 70.232422 C 365.72873 67.540077 368.71884 67.123139 370.28906 68.693359 C 372.64606 71.050357 372.27959 73.518693 368.27539 82.238281 C 363.49471 92.648749 361.87244 100.69072 363.05664 108.10352 C 363.74469 112.41059 365.40636 116.55859 366.44531 116.55859 C 366.79448 116.55859 368.49218 115.37025 370.2168 113.91602 C 373.67112 111.00331 376.56643 110.43546 377.99609 112.39062 C 378.44603 113.00596 378.9732 115.40826 379.16797 117.73047 C 379.93477 126.87278 380.80615 131.84087 382.08203 134.3418 C 384.90205 139.86949 391.46137 144.49074 403.29688 149.28906 C 406.1095 150.42934 408.59738 151.17016 408.82617 150.93555 C 409.05497 150.70095 410.27352 147.03832 411.5332 142.79688 L 413.82227 135.08594 L 411.60547 126.93359 C 410.38647 122.44966 408.79363 115.6655 408.06445 111.85742 C 402.83534 84.549007 387.99713 63.178909 366.8457 52.494141 C 359.55889 48.813164 351.06636 46.15853 347.27539 46.066406 z M 566.38477 136.86523 C 569.53224 136.86523 571.41397 138.75819 572.80859 143.32617 C 575.25966 151.35445 573.83963 162.85765 569.91211 166.78516 C 567.95538 168.74189 566.05978 169.03659 563.5625 167.77344 C 561.46002 166.70999 560.62171 164.80343 559.19141 157.83008 C 558.02902 152.16267 558.02938 151.85896 559.1582 146.69336 C 560.99253 138.29937 562.04667 136.86523 566.38477 136.86523 z M 481.53125 138.96094 C 482.27988 139.00588 482.9895 139.14848 483.59766 139.40039 C 489.81289 141.97483 489.93878 165.16723 483.76758 170.68359 C 482.02147 172.24441 478.58315 172.62238 476.54492 171.47656 C 474.51674 170.33639 473.22586 167.25094 472.19531 161.08398 C 471.04281 154.18728 472.71996 143.79629 475.45703 140.88281 C 476.69053 139.56982 479.28535 138.82612 481.53125 138.96094 z M 399.98633 216.38672 C 399.81699 216.39216 399.65623 216.41587 399.5 216.45508 C 397.41083 216.97942 397.31674 216.82499 407.74219 229.83008 C 423.75006 249.79888 427.66244 253.29301 441.61328 260.07617 C 445.21687 261.8283 448.07241 263.34496 447.95898 263.44531 C 447.84555 263.54567 443.49111 263.32229 438.28125 262.94922 L 428.80859 262.26953 L 426.22461 265.1543 C 424.8032 266.73999 412.3603 280.25621 398.57422 295.19141 C 384.78814 310.12661 372.54573 323.66075 371.36914 325.26758 C 368.22533 329.56101 365.85482 335.10367 363.98242 342.53906 C 363.06951 346.16428 359.04216 359.12432 355.0332 371.33984 C 351.02425 383.55535 347.48408 394.70855 347.16602 396.125 C 346.20196 400.41847 344.09455 419.88722 342.73828 437.01758 C 340.87142 460.59677 339.66438 468.29469 335.69727 481.96484 C 331.62232 496.00662 328.71874 502.14793 309.23633 537.91602 C 301.72724 551.7021 294.98304 564.55112 294.25 566.4707 C 293.01301 569.70983 292.92156 571.14865 292.97656 586.46094 C 293.03502 602.75106 293.50779 608.48474 295.52539 617.35547 L 296.55664 621.88672 L 313.14062 638.9375 L 329.72266 655.98633 L 330.09961 652.62695 C 330.70072 647.26005 332.71603 645.1582 337.25977 645.1582 C 345.22833 645.1582 356.07297 663.61061 349.53516 666.04492 C 347.90431 666.65216 345.85828 666.05204 345.17383 664.76758 C 344.91286 664.27785 343.94283 662.11646 343.01758 659.96289 C 341.35335 656.08932 338.68868 652.79766 337.875 653.61133 C 337.64363 653.84271 338.0707 656.28172 338.82422 659.03125 C 340.5281 665.24851 340.53091 666.39487 338.85742 668.06836 C 335.62082 671.30496 332.47699 668.96323 310.91992 647.25781 C 288.70241 624.88742 278.60696 613.74571 262.44531 593.75781 C 251.6745 580.43702 240.64531 567.96914 238.0293 566.15625 C 236.72107 565.24965 234.25898 563.97951 232.55664 563.33398 C 226.37758 560.99086 205.14939 556.95312 199.00977 556.95312 C 197.12609 556.95312 195.84787 557.59028 192.74609 560.07422 C 190.60252 561.79082 187.67366 564.43157 186.23828 565.94336 C 183.20741 569.13557 178.37695 575.65463 178.37695 576.55273 C 178.37695 576.89168 182.01881 580.14581 186.46875 583.78516 C 199.04501 594.07056 207.69328 603.66312 215.09375 615.53125 C 219.27283 622.23324 226.60547 637.49087 226.60547 639.48633 C 226.60547 641.23352 224.70068 643.25391 223.05469 643.25391 C 222.65361 643.25391 220.10195 641.80241 217.38281 640.02734 C 207.53132 633.59622 188.53125 625.19473 188.53125 627.26953 C 188.53125 628.70236 200.15111 641.35758 214.85938 655.94531 C 223.83278 664.84519 232.06578 673.41185 233.15625 674.98242 C 235.35514 678.14938 235.78277 681.65695 234.20508 683.58203 C 232.97403 685.08416 222.69895 689.91268 210.23828 694.84375 L 200.23242 698.80273 L 203.26562 702.56641 C 207.73488 708.11402 207.54736 709.43413 201.22266 716.9668 C 195.52169 723.75661 195.43616 723.60215 205.26758 724.17773 C 209.84827 724.44591 218.73726 724.86369 225.01953 725.10547 C 249.15222 726.03424 267.52774 724.67357 305.60938 719.13672 C 329.85896 715.61098 346.05024 713.57616 354.1543 713.03711 C 358.86599 712.7237 366.71926 712.01422 371.60547 711.46094 C 388.95896 709.49593 467.3236 709.57115 498.57812 711.58203 L 504.34961 711.95312 L 504.76367 707.50391 C 505.58604 698.65553 508.45008 691.77272 516.57812 679.10742 C 519.26592 674.91924 522.81769 669.29403 524.47266 666.60742 C 529.26144 658.8335 532.39418 656.49703 541.36914 654 C 546.96142 652.44411 553.16552 649.59434 558.55273 646.10938 C 562.79777 643.36327 574.98438 632.24135 574.98438 631.11328 C 574.98437 630.82084 571.20062 633.70621 566.57617 637.52539 C 557.10534 645.34703 550.5942 649.23943 548.04492 648.59961 C 546.42661 648.19344 546.09955 647.38757 546.80664 645.54492 C 547.01464 645.00286 550.37075 642.14476 554.26367 639.19336 C 560.32284 634.59962 571.55898 624.2168 570.4707 624.2168 C 570.27338 624.2168 567.73556 625.64554 564.83203 627.39062 C 561.9285 629.1357 558.94234 630.5625 558.19531 630.5625 C 556.41992 630.5625 555.3125 629.40584 555.3125 627.54688 C 555.3125 625.65483 564.1286 616.44942 577.20703 604.68359 C 582.44225 599.9738 587.08131 595.67663 587.51758 595.13477 C 588.06285 594.45754 588.30683 591.55975 588.29883 585.86328 C 588.26273 560.12799 577.83969 529.17548 566.82812 522.10938 C 559.83001 517.6187 553.97932 517.95389 535.54297 523.90039 C 529.03217 526.00039 521.79661 528.02367 519.46289 528.39648 C 511.87969 529.6079 505.66405 527.63792 500.95508 522.5293 C 491.36559 512.12592 490.69621 480.36888 499.50781 453.87109 C 501.87301 446.75859 511.62604 425.84719 515.28516 420.04297 C 516.49004 418.13175 519.14258 417.12613 519.14258 418.58008 C 519.14258 418.90926 517.42735 423.9291 515.33008 429.73633 C 509.37977 446.2124 502.57277 469.39277 501.76367 475.9375 L 501.38477 479.00391 L 503.44141 477.27539 C 507.36346 473.97831 513.61251 468.11328 513.20312 468.11328 C 512.97687 468.11328 511.76402 468.66265 510.50781 469.33594 C 505.63324 471.94855 505.0469 468.96567 509.59766 464.70898 C 512.42846 462.06109 512.59125 461.76758 511.22656 461.76758 C 509.42757 461.76758 508.49181 459.63985 509.66797 458.22266 C 510.09916 457.70311 512.78075 455.75956 515.62695 453.9043 L 520.80273 450.53125 L 523.86328 442.34766 C 525.54706 437.84617 530.91015 425.97788 535.7793 415.97461 C 540.77452 405.7123 544.78212 396.66833 544.97656 395.21875 C 545.27837 392.96853 544.72581 391.40515 540.5332 382.62891 C 530.97143 362.61366 528.03048 353.5592 528.02148 344.11133 C 528.01551 338.04686 528.25035 338.92978 521.86328 321.04102 C 519.92132 315.60204 520.36074 313.50871 523.57812 312.86523 C 524.62903 312.65505 525.48828 312.29984 525.48828 312.07617 C 525.48828 311.8525 524.32995 309.68858 522.91406 307.26562 C 517.80136 298.5165 510.38179 290.73957 501.375 284.68945 C 494.52007 280.0848 467.34091 267.81974 451.97656 262.39844 C 445.757 260.20387 438.0416 256.43475 434.74414 253.98047 C 427.20803 248.37137 422.04068 241.34979 419.88477 233.79102 C 418.59579 229.27176 414.60247 225.04689 406.57422 219.70508 C 402.80007 217.19385 401.1717 216.34863 399.98633 216.38672 z M 360.21875 470.22461 C 360.70049 470.38834 360.46331 474.34688 359.22266 489.25195 C 357.45782 510.45446 356.72791 515.05366 350.59766 543.62695 C 341.7954 584.65463 340.11065 596.95006 341.33984 611.20898 C 341.77739 616.28471 341.74699 618.3153 341.22656 618.6543 C 339.44416 619.81536 338.68966 618.67043 337.36719 612.79492 C 333.37982 595.07975 337.02073 562.96043 346.63281 531.06445 C 350.70464 517.55281 351.71095 513.18357 354.77539 495.7168 C 357.92809 477.74693 359.27999 471.14816 359.96875 470.36523 C 360.06612 470.25455 360.14993 470.20122 360.21875 470.22461 z "
       style="opacity:1;fill:#e17127;fill-opacity:1;fill-rule:evenodd;stroke:#e17127;stroke-width:5;stroke-linecap:round;stroke-linejoin:round;stroke-miterlimit:4;stroke-dasharray:none;stroke-opacity:1" /><path
       id="path5092"
       d="M 527.96484 203.42188 L 517.81055 205.95898 L 518.44531 216.74805 L 533.67578 226.90039 L 550.17383 221.82422 L 550.80859 205.95898 L 527.96484 203.42188 z M 615.53516 685.69531 L 588.88281 693.94531 L 597.76758 725.67383 L 622.51562 721.86719 L 617.43945 686.33008 L 615.53516 685.69531 z "
       style="fill:#b3aeae;fill-rule:evenodd;stroke:none;stroke-width:1px;stroke-linecap:butt;stroke-linejoin:miter;stroke-opacity:1;fill-opacity:1" /><g
       id="g4524"><path
         id="path4526"
         d="M423.3,258c-11.3-10.1-19.2-22.9-29.1-33.9c-2.1-2.3-3.6-5.2-5.2-7.8c-1.5-2.4-1-4.7,1.2-6.5c0.9-0.7,1.9-1.4,3.2-2.3   c-1.6-0.6-2.8-1.1-4.1-1.5c-1.5-0.5-3-0.9-4.5-1.5c-4.6-1.8-7.5-5-3.4-10.6c3.4-4.6,6.7-9.4,10.2-14.2c0.1,0.1,0-0.1-0.2-0.1   c-15-5.6-26.3-16-36.3-28c-16.7-19.9-27-42.7-30.6-68.4c-2.2-15.6-3.1-31.2-1.4-46.8c0.6-6,1.4-11.9,2.8-17.7   c1.4-5.9,5.2-8,11.1-7.3c2,0.3,4,0.6,5.9,1c16.5,3.7,31.8,10.3,46.2,19c16,9.7,31.5,20.1,44.6,33.6c5,5.2,9.5,11,14,16.8   c1.3,1.7,2.2,1.8,4,0.9c8.7-4.3,17.4-8.5,26.2-12.8c3.6-1.8,7.5-3.3,10.9-5.4c3.1-2,5.7-4.7,8.5-7.2c2.9-2.6,5.7-5.4,8.6-8.1   c0.7-0.7,1.5-1.3,2.3-2c1.9-1.5,3.9-2.6,6.3-1.4c2.4,1.2,3.2,3.4,3.3,5.9c0,2.6-0.2,5.3-0.4,8.2c1-0.6,2-1.1,2.9-1.6   c5.5-3,9.9-1.2,11,4.9c0.5,2.6,1.7,3.2,4,3.7c7.4,1.4,14.8,3,22.3,4.4c0.7,0.1,1.8-0.1,2.2-0.5c16.1-17.4,36.1-29.4,57-40   c18.2-9.2,37-17,56.9-22.1c4.4-1.1,9-1.7,13.5-2.3c3.9-0.5,6.8,1.3,8.7,4.7c2.1,3.8,3,8,3.3,12.3c1.6,31.2-5.7,60.2-21.8,87.1   c-9.3,15.6-20,30-35,40.7c-5,3.6-10.5,6.7-15.8,9.9c-1.1,0.6-2.4,0.9-4.1,1.5c3.5,4.2,7,8.3,10.5,12.4c1.2,1.4,2.6,2.5,3.8,3.8   c3.3,3.8,2.5,8.6-2.1,10.9c-1.8,0.9-3.7,1.5-5.8,2.3c1.3,1.7,2.5,3.5,3.9,5.1c3.5,3.9,3.5,7.9,0.8,12.2   c-5.6,9.2-12.8,17.1-20.5,24.4c-14.2,13.5-30.1,24.9-45.9,36.3c-7.1,5.1-14.2,10.2-21.3,15.3c-1.9,1.4-3.7,3-5.6,4.5   c2.6,2.8,5.8,4.8,9.6,5.7c5.5,1.3,6.2,5.8,2.5,9.6c-1.9,1.9-3.9,3.6-5.8,5.3c1.5,1.7,3,3.5,4.6,5.2c2.1,2.4,2.3,5.2,1.9,8.3   c-0.2,2-0.5,4.3,0.1,6.1c2.9,9.2,2.3,18.5,0.7,27.8c-1.7,10.5-2.2,21-0.8,31.6c0.7,5.2-0.7,10.1-3,14.7   c-5.2,10.5-10.5,21-15.6,31.5c-3.1,6.4-6,12.9-6.7,20c-0.5,4.4-0.3,9,0.3,13.5c1.7,12.7,3.8,25.3,5.9,37.9c0.5,3.1,1.7,6,2.5,8.9   c4.6-1.2,9-2.5,13.5-3.3c13-2.3,23.2,1.6,30.2,12.9c6.6,10.7,10.4,22.6,13,34.8c2.1,9.7,3.4,19.6,3,29.6c-0.7,17-4,33.5-9.2,49.6   c-4.6,14.4-9.6,28.7-16,42.5c-0.2,0.4-0.3,0.8-0.6,1.7c3.9,0.1,7.5,0.7,11.1,0.2c11.9-1.5,23.8-3.3,35.6-5.2   c4.2-0.7,7.6,0.2,10.3,3.6c7.4,9.4,12.1,19.9,12.5,32c0.1,1.9-0.2,3.9-0.4,5.8c-0.4,2.9-2.5,4.1-5,4.7c-4.4,1.1-8.9,1.9-13.4,2.7   c-10.7,1.8-21.5,2.3-32.3,1.2c-10.4-1-20.8-2.9-31.2-4.4c-8.7-1.2-17.4-2.3-26.2-3.2c-10.2-1-20.4-1.7-30.6-2.5   c-5.4-0.4-10.8-0.8-16.3-0.9c-27-0.4-54.1-0.9-81.1-0.8c-13.7,0.1-27.4,1.5-41.1,2.4c-8.1,0.6-16.2,1.1-24.3,2.2   c-8.9,1.1-17.6,2.8-26.5,4.1c-10.4,1.5-20.8,2.8-31.2,4.1c-7.6,0.9-15.2,1.9-22.8,2.4c-7.4,0.5-14.9,0.5-22.3,0.4   c-7.8-0.1-15.6-0.7-23.4-1c-10.6-0.5-21.1-1.1-31.7-1.6c-4.7-0.2-9.4-0.3-14.2-0.5c-10.1-0.6-20.1-1.3-30.2-2   c-6.6-0.5-13.3-1-19.9-1.4c-15.4-0.7-30.7-1.4-46.1-2c-6.1-0.2-12.2-0.1-18.2-0.2c-5.5-0.2-11-0.5-16.5-0.9c-3.6-0.3-5.5-3-4.1-6.3   c1.2-2.9,3-5.7,4.6-8.4c0.9-1.5,2-2.8,3.2-4.3c-5-1.4-9.8-2.8-14.5-4.1c-4.5-1.3-8.7-3.1-12.4-6.1c-1.1-0.9-1.6-1.8-1-3.1   c2.8-6.2,5.4-12.5,8.6-18.4c6-11.2,12.8-21.9,20.8-31.7c10.3-12.6,23-22.2,36.9-30.4c1.1-0.6,1.9-1.2,2.2-2.6   c0.3-1.2,1.1-2.3,1.9-3.3c11.1-13.3,25.1-21.6,42.3-24.6c3.6-0.6,7.1-1.1,11.2-1.8c-1.8-1.3-3.1-2.3-4.5-3.3   c-3.5-2.3-7.1-4.5-10.6-6.9c-1.4-0.9-2.7-1.9-4-2.9c-1.6-1.3-2.7-2.8-2.3-5c0.4-2.2,2.1-3.2,4-3.7c3.8-1,7.6-1.8,11.5-2.5   c17.6-3.2,35.3-4.9,53.1-4.8c16.4,0.1,32.5,2.3,48.4,6.3c7.6,2,14.1,5.7,19.1,11.6c8,9.4,15.8,18.9,23.7,28.3c4,4.8,8,9.7,12,14.6   c0.3,0.4,0.7,0.8,1.4,1.6c-0.3-7-0.5-13.6-0.8-20.1c-0.3-9.2-1.1-18.5,2.4-27.4c1.8-4.6,4.4-9,6.7-13.4   c9.1-17.3,18.5-34.4,27.3-51.8c7.1-14.1,10.5-29.3,12.3-44.9c1.2-10.4,1.7-20.9,2.7-31.4c0.8-8,1.3-16.2,2.9-24   c1.8-8.4,4.8-16.6,7.3-24.8c3.6-12,7.5-23.8,10.8-35.9c2.3-8.5,6.5-15.7,12.3-22.1c15.5-16.9,31.1-33.7,46.6-50.5   C419,262.5,421.2,260.2,423.3,258z M526.2,312.5c-0.4-0.8-0.6-1.4-0.9-1.9c-7.6-14.1-18.6-24.7-33.2-31.5   c-13.2-6.1-26.4-12.4-40.2-17c-8.8-3-17-7.2-23.6-14.1c-3.9-4.1-7.1-8.6-8-14.4c-0.3-1.6-1.2-3.3-2.3-4.7   c-4.3-5.2-9.9-8.8-15.6-12.3c-2-1.2-3.3-0.9-4.9,0.7c1.3,1.8,2.6,3.5,3.9,5.2c6,7.4,12,14.8,18,22.2c4.8,5.9,11.3,9.9,17.7,13.6   c3.3,1.9,6.9,3.3,10.7,5c-0.9,0-1.4-0.1-1.9-0.1c-5.1-0.4-10.1-0.8-15.2-1.2c-1.3-0.1-2.2,0.3-3.1,1.3c-2.9,3.2-5.9,6.3-8.8,9.4   c-14.9,16.2-29.9,32.4-44.8,48.7c-4.9,5.4-8.1,11.7-9.8,18.8c-1,4.6-2.2,9.2-3.7,13.7c-3.3,10.3-6.9,20.6-10.2,30.9   c-1.7,5.3-3.8,10.6-4.3,16.3c-0.7,6.8-1.7,13.6-2.3,20.4c-1,10.5-1.5,21.1-2.6,31.6c-2.1,20.9-8.2,40.6-18.2,59   c-8.6,15.8-17.2,31.7-25.8,47.5c-2.6,4.7-4.6,9.6-4.6,15c0,6.9,0.1,13.7,0.1,20.6c0.1,8.7,1.2,17.2,3.4,25.6c0.3,1,0.8,2,1.5,2.8   c10.3,10.5,20.6,20.9,30.9,31.3c0.5,0.5,1.1,1,1.9,1.7c0-1.7-0.1-3,0-4.3c0.4-6,5.2-8.7,10.5-5.9c0.9,0.5,1.7,1,2.5,1.7   c4,3.5,6.7,7.8,7.9,13c0.6,2.5-0.4,4.6-2.4,5c-1.9,0.4-3.6-0.7-4.2-3.3c-0.9-3.4-2.5-6.4-5-8.8c-0.6-0.6-1.4-1.1-2.3-1.7   c-0.1,0.8-0.2,1.1-0.1,1.5c0.8,3.1,1.5,6.2,2.4,9.3c0.5,1.7,0.6,3.4-0.9,4.8c-1.5,1.3-3.2,1.2-4.8,0.3c-1-0.5-2-1.1-2.9-1.9   c-2.5-2.1-5-4.3-7.4-6.6c-22.2-21.6-43.6-44.1-62.8-68.5c-5.9-7.5-12.2-14.6-18.5-21.7c-3.3-3.7-7.5-6.1-12.3-7.4   c-10.2-2.9-20.6-4.5-31.2-5.7c-0.7-0.1-1.6-0.1-2.1,0.2c-5.1,3.8-10.2,7.6-14,12.8c-1.7,2.4-3.4,4.8-5.2,7.4   c2.8,2.3,5.2,4.5,7.7,6.4c14.4,10.8,25.7,24.2,34,40.1c2.4,4.6,4.6,9.4,6.8,14.1c0.7,1.6,0.7,3.3-0.8,4.5c-1.6,1.3-3.2,1-4.7-0.1   c-0.3-0.2-0.6-0.4-0.9-0.6c-8.5-6.1-17.8-10.6-27.7-13.9c-1.3-0.4-2.7-0.7-4.6-1.2c0.8,1.2,1.2,1.9,1.7,2.6   c6.3,8.8,14.2,16.1,21.9,23.5c6.6,6.4,13,12.9,19.3,19.5c1.7,1.7,3,3.8,4.2,5.9c1.4,2.5,0.7,4.9-1.5,6.7c-1,0.8-2.1,1.5-3.3,2   c-5.3,2.4-10.6,4.7-15.9,6.9c-4.6,1.9-9.3,3.6-14.1,5.5c1.8,2,3.4,3.7,4.8,5.6c2.6,3.5,2.3,6-0.6,9.1c-2.1,2.2-4,4.6-5.9,7.1   c-0.7,0.9-1,2.2-1.5,3.5c4.2,0.2,8,0.4,11.8,0.6c7.9,0.4,15.9,1,23.8,1.1c8.6,0.1,17.3,0.1,26-0.5c9.8-0.7,19.5-2,29.2-3.2   c10.7-1.4,21.4-3,32.1-4.5c9.2-1.3,18.4-2.6,27.6-3.7c3.5-0.4,7-0.2,10.5-0.5c7.6-0.7,15.2-2,22.8-2.3c13.8-0.6,27.6-0.8,41.4-0.9   c12.7-0.1,25.5,0.2,38.2,0.4c7.3,0.1,14.6,0.3,21.9,0.5c4.1,0.1,8.3,0.5,12.4,0.7c3.5,0.2,6.9,0.3,10.4,0.5   c0.5-10.4,3.6-19.6,9.2-28c4.1-6.2,8.1-12.5,11.9-18.9c3.3-5.5,7.7-9,14-10.5c15.8-3.9,27.8-13.3,37.7-25.8   c0.2-0.2,0.2-0.5,0.5-1.2c-0.9,0.8-1.4,1.3-2,1.7c-6.1,5-12.1,10.1-18.3,14.9c-2.3,1.8-5.1,2.9-7.7,4c-0.8,0.3-2-0.4-3.1-0.7   c0.3-1,0.3-2.3,1-2.9c1.6-1.6,3.5-3,5.4-4.3c7.4-5,13.6-11.2,19.4-17.9c-0.6,0.2-1.2,0.5-1.7,0.8c-3.1,1.9-6.1,3.9-9.3,5.7   c-1.6,1-3.7,2.1-5.3,0.3c-1.6-1.9,0.1-3.7,1.3-5.1c4-4.3,8-8.6,12.3-12.6c5.6-5.2,11.4-10.2,17.1-15.3c1.3-1.2,1.8-2.6,1.9-4.4   c0.5-13.7-1.4-27.1-5.3-40.2c-2.5-8.4-5.5-16.7-10.5-24.1c-4.1-6-9.8-9.1-17.1-9c-6.3,0.1-12.2,2.2-18.1,4.1   c-6.7,2.1-13.1,4.8-20.2,5.6c-8.7,0.9-16.2-3-19.7-10.9c-0.9-2.1-1.7-4.3-2.2-6.5c-3.3-12.4-2.3-25-0.7-37.5   c2.5-19.4,11.3-36.5,20.5-53.3c0.7-1.3,1.9-2.3,3.6-1.8c-3.1,8.6-6.3,17-9,25.5c-2.8,8.8-5.3,17.6-7.7,26.5   c-0.8,2.8-0.8,5.8-1.2,8.7c0.2,0.1,0.4,0.1,0.6,0.2c4.7-4.2,9.4-8.5,14-12.7c-0.1-0.1-0.2-0.3-0.3-0.4c-0.8,0.4-1.6,0.9-2.3,1.3   c-1.5,0.9-2.9,1.8-4.5,2.5c-0.6,0.3-1.4-0.1-2.2-0.2c0.1-0.7,0.1-1.4,0.4-2c0.5-0.8,1.3-1.6,2-2.2c2-1.8,4.1-3.5,6.2-5.2   c-0.5-0.1-0.8,0.1-1.1,0.2c-1.5,0.4-3.4,1.9-4.4,0c-1-1.9,1-3.1,2.4-4c2.5-1.7,5.2-3.1,7.6-4.8c0.9-0.6,1.6-1.6,2-2.5   c2.2-5.5,3.9-11.2,6.4-16.6c4.9-10.4,10.2-20.6,15.2-31c0.9-1.8,1.6-3.8,2.2-5.8c0.8-3.1-0.7-5.5-2.1-8.2   c-3.6-6.8-6.7-13.9-9.6-21.1c-3.1-7.5-6-15.1-5.4-23.4c0.3-3.8-0.5-7.3-1.9-10.9c-1.8-4.4-3.6-8.9-5.1-13.4   C520,314.8,521.5,312.9,526.2,312.5z M511.2,215.4c0.6-2,1.5-4,1.6-6.1c0.1-4.2,0.3-4.7,4.1-6.2c8.1-3.1,16.5-4.1,25.1-2.8   c6.1,1,11.4,3.7,14.6,9.4c0.6,1.1,0.9,2.3,1.4,3.6c1.6-1.1,3-2.3,4.5-3.2c2.4-1.2,3.2-2.8,2-5.3c-0.4-0.8-0.5-1.7-0.4-2.5   c0-0.6,0.4-1.2,0.6-1.8c0.5,0.4,1.1,0.6,1.4,1.1c0.8,1.5,1.5,3,2.3,4.5c7.6-4.4,15.6-7.2,24-9.1c4-0.9,8-1.6,12-2   c4-0.4,5.7,2,4.4,5.8c-0.6,1.7-1.4,3.4-2.2,5.1c-0.7,1.5-1.5,3-2.4,4.9c6.8,0,13.1,0,20,0c1-1.6,2.3-3.7,3.6-5.9   c0.7-1.1,0.6-2.1-0.3-3.1c-1.5-1.8-2.9-3.6-4.2-5.4c-1-1.5-2.1-3.1-2.7-4.8c-0.9-2.5,0.3-4.7,2.7-5.7c1-0.4,2.1-0.5,3.1-0.8   c1.6-0.5,3.2-1,4.5-1.4c-4.7-5.8-9.5-11.2-13.6-17.1c-4.3-6.1-4.6-13.5-5.4-20.2c1.2-0.7,2.1-1.1,2.9-1.7c1.7-1.1,3.3-2.3,4.9-3.5   c12.8-9.2,24.3-19.7,33.3-32.8c1.6-2.4,2.4-4.5,2-7.3c-0.9-6.6-3.9-11.7-10-14.8c-2.4-1.2-2.7-2.4-0.9-4.4c0.8-0.8,1.7-1.5,2.7-2.1   c2.7-1.9,5.6-3.5,8.1-5.6c2-1.7,3.8-3.9,5.2-6.2c2-3.4,0.6-5.3-3.2-4.9c-3.3,0.3-6.5,1.1-9.7,1.7c-2.4,0.5-4.7,1.2-7.1,1.3   c-1.1,0-2.7-1-3.1-2c-0.4-1,0-2.6,0.5-3.7c0.4-0.8,1.4-1.4,2.3-1.9c2.3-1.5,4.6-2.8,6.9-4.4c5.8-4,11.5-7.9,17.2-12   c1.1-0.8,2-2,2.9-3.1c-0.1-0.2-0.2-0.4-0.4-0.6c-1.4,0-2.8-0.1-4.2,0c-2,0.2-4,0.4-6,0.7c-7.4,0.9-14.7,2.5-21.4,5.8   c-9.6,4.7-17.6,11.2-22.4,21.1c-0.9,1.9-1.6,4.2-3,5.7c-2.6,2.8-3.6,6.1-4.8,9.5c-1.4,4.1-2.4,8.2-3.8,12.3   c-1.3,4-0.4,7.4,1.9,10.7c1.1,1.6,2.4,3.3,2.9,5.2c1.8,6.5,2.4,13.2,2.2,19.9c-2.1-0.3-2.8-1-3.4-3.2c-1-3.8-2.1-7.7-3.1-11.5   c-0.2,0-0.4,0.1-0.7,0.1c-0.1,0.6-0.2,1.2-0.3,2.5c-2.7-3.4-5.1-6.3-7.3-9.4c-4.9-7.1-10.3-13.8-17.1-19.1   c-3.7-2.9-7.6-5.8-11.8-7.7c-4.2-2-7.7-5.5-12.5-6.1c-1.8-0.2-3.6-1-5.4-1.2c-5.4-0.8-10.9-2-16.3-2c-3.3,0-4.8-1.5-5.3-4.4   c-0.2-1.1-0.4-2.3-0.6-3.6c-0.7,0.3-1,0.4-1.3,0.6c-2.5,1.5-4.8,3.2-7.4,4.3c-1.4,0.6-3.4,0.5-4.8-0.1c-1.8-0.8-2-2.8-1.6-4.7   c0.3-1.5,0.7-3.1,0.9-4.6c0.3-1.6,0.4-3.2,0.6-4.8c-1.1,0.4-1.6,0.9-2.2,1.5c-4.2,3.9-8.2,8.1-12.6,11.6c-3.5,2.8-7.4,5.4-11.6,7.2   c-10.1,4.5-20.5,8.4-30.7,12.7c-1.6,0.6-3.1,1.6-4.3,2.7c-7.6,6.6-13.4,14.5-17.2,23.8c-4.1,9.8-7.7,19.7-11.6,29.5   c-2.1,5.3-3.9,10.7-6.6,15.8c-5.5,10.7-12.3,20.6-20.5,29.5c-2.5,2.8-4.5,6-6.9,9.2c4.3,1.6,8.2,3.1,12,4.5c4.3,1.6,5,4.3,2,7.8   c-0.2,0.2-0.3,0.4-0.9,1.2c10.9-4.9,22.1-5.3,33.3-6.9c-0.5-1.7-0.9-3.1-1.4-4.5c-2-5.9-0.8-7.6,5.5-7.4c10,0.3,19.8,1.7,29.5,4.1   C482.5,200.5,497.4,206.9,511.2,215.4z M199.2,708.4c-0.8-0.9-1.6-1.8-2.4-2.7c-0.9-1-1.9-1.9-2.8-3c-2.9-3.5-2.2-7.1,1.7-9.3   c1.2-0.7,2.6-1.3,3.9-1.8c5.5-2.2,11.1-4.2,16.6-6.5c3.9-1.6,7.8-3.5,11.9-5.3c-0.7-0.9-1-1.5-1.5-2c-2.9-3.3-5.7-6.6-8.8-9.7   c-7.8-7.8-15.9-15.3-23.7-23.1c-5.1-5.1-9.7-10.5-13.3-16.8c-1.4-2.4-2-5-0.1-7.5c1.8-2.4,4.4-2,6.9-1.6c0.1,0,0.3,0.1,0.4,0.1   c8.7,1.8,16.7,5.3,24.5,9.5c0.7,0.4,1.4,0.7,2.4,1.2c-2.5-6.8-12.8-22.4-19.2-28.4c-7-6.5-14.3-12.6-21.5-18.7   c-4-3.4-4.5-5.2-1.9-9.8c3.4-6.1,7.9-11.4,13.1-16c0.4-0.3,1-0.5,1.5-0.7c-0.2-0.2-0.4-0.5-0.6-0.7c-21.3-0.4-42.4,1.6-63.8,6.1   c1.3,0.8,2,1.3,2.8,1.8c3.9,2.6,7.9,5,11.6,7.8c3.1,2.3,5.8,5.1,8.6,7.7c1.1,1.1,1.7,2.8,0.6,4.1c-0.8,0.9-2.2,1.9-3.3,1.8   c-5.7-0.5-11.3,0.3-16.9,1.2c-12.6,1.9-23.5,7.3-33.1,15.6c-0.3,0.2-0.5,0.6-1,1.2c2.6-0.9,4.7-1.7,6.9-2.3c3.5-1,7-2.1,10.5-3   c2.2-0.6,3.9,0.4,4.4,2.3c0.5,1.8-0.5,3.5-2.7,4.2c-0.7,0.2-1.4,0.4-2.1,0.6c-25.2,6.4-46,20.1-62.9,39.5   c-10.6,12.1-18.4,26.2-25.7,40.5c-0.8,1.6-1.5,3.2-2.6,5.3c4.5,1.7,8.6,3.4,12.9,4.8c4.1,1.3,8.3,2.2,12.4,3.5   c4.1,1.3,5,4.3,2.6,7.9c-1.3,1.9-2.8,3.8-4.2,5.7c-1.1,1.5-2,3-3.2,4.8c2.2,0.2,4,0.5,5.8,0.5c18.6,0.5,37.2,0.8,55.8,1.4   c9.5,0.3,19,1.2,28.5,1.8c11.8,0.8,23.7,1.7,35.5,2.5c5.2,0.3,10.4,0.6,15.6,0.7c3.7,0.1,7.4,0,11.1,0   C190.5,717,195.3,713.1,199.2,708.4z M403.8,213.4c5,3.4,9.4,6.1,13.5,9.3c3.9,3.1,7.8,6.2,8.3,12c0.4,4.2,3.6,7.5,6.7,10.5   c5.2,5.2,11.7,8.4,18.3,11.3c6.3,2.7,13.2,4.1,19,8.3c2.4,1.7,5.2,2.9,8,4.1c9,4,18.2,7.7,26.6,13c12.1,7.7,20,19,27.6,30.7   c0.1,0.2,0.2,0.4,0.3,0.6c0.6,1.4,1.2,2.9-0.1,4c-0.9,0.7-2.4,0.8-3.7,1c-0.5,0.1-1.2-0.2-2.1-0.3c2.1,5.4,4.2,10.4,5.9,15.6   c0.9,2.7,1,5.7,1.3,8.6c0.3,3.3,0.1,6.8,0.9,10c2.1,9.3,6.3,17.9,10.4,26.5c0.1,0.1,0.3,0.1,0.4,0.2c0.2-4.1,0.3-8.2,0.7-12.3   c0.4-4.1,1-8.2,1.7-12.3c1.3-7.6,1.2-15-1.1-22.5c-0.7-2.2-0.8-4.9-0.4-7.2c0.6-2.8-0.1-4.9-2.1-6.7c-1-0.9-2-1.8-3.2-2.6   c-4.3-3-4.4-6.1-0.2-9.2c1.8-1.3,3.6-2.7,5.7-4.2c-0.7-0.4-1-0.6-1.4-0.8c-5.2-2.1-9.5-5.5-13-9.6c-4.2-4.9-9.2-8.7-14.1-12.7   c-3.2-2.6-5.8-5.9-8.7-8.9c10.5,2.1,18.6,8,26,15.4c2.4-1.9,4.5-3.7,6.8-5.4c14.7-10.7,29.5-21.2,44-32.1c12.3-9.2,24-19,33.8-30.9   c0.5-0.6,0.9-1.2,1.7-2.2c-5.4,0-10.3-0.1-15.2,0c-2,0-4.2,1-5.5-1c-1.3-2,0-3.8,0.8-5.6c1.4-2.9,2.8-5.7,4.2-8.7   c-5.9-1.7-30.4,5.6-35.5,10.3c0.7,2.5,1.5,5,2.1,7.5c1,4.5,1.3,8.9-1.2,13.1c-3.3,5.5-7.2,10.5-12.1,14.7   c-4.1,3.5-8.4,6.9-13.9,7.6c-2.9,0.3-5.8,0-8.7-0.2c-6.5-0.3-13-0.5-19.5-0.9c-2.6-0.2-5.2-0.9-7.7-1.3c0-0.3,0.1-0.6,0.1-0.9   c2.8-0.3,5.5-0.8,8.3-0.8c6.9-0.1,13.7,0.2,20.6,0c6.1-0.2,11.8-1.8,16.6-6c4.9-4.3,9.1-9.1,12.3-14.8c0.8-1.4,1.3-3.3,1.2-4.9   c-0.2-3.7-0.9-7.3-1.5-11.5c-2.3,1.6-4.2,2.8-5.9,4.1c-1,0.8-2.3,1.5-2.7,2.6c-2.3,5.9-6.7,9.7-12,12.6c-3.6,2-7.6,2.9-11.6,2.2   c-3.8-0.6-7.5-1.7-11.2-2.9c-4.3-1.4-7.8-4.1-9.9-8.4c-0.3-0.7-1-1.4-1.7-1.8c-20.4-12.3-42.3-20.4-66.1-22.7   c-3.4-0.3-6.7-0.4-10.4-0.6c0.5,1.5,0.8,2.5,1.1,3.5c0.3,1.1,0.8,2.2,1,3.3c0.8,3.1-0.4,4.8-3.6,5.3c-4.5,0.6-9.1,1-13.6,1.8   C414.5,211.1,409.4,212.3,403.8,213.4z M352.4,72.5c0.2,0.2,0.4,0.5,0.7,0.7c0.7-0.3,1.4-0.6,2.1-0.9c3.3-1.4,6.5-2.9,9.9-4   c4.4-1.4,7.4,1.4,6.2,5.8c-0.7,2.5-1.8,4.8-2.9,7.1c-2.8,6-5.4,12-5.9,18.7c-0.4,5.1-0.1,10.2,2,14.9c1.1,2.5,2.1,2.7,4.2,0.9   c1.4-1.1,2.6-2.5,4-3.5c2.9-1.9,5.9-0.4,6.1,3.1c0.2,3.4,0.4,6.8,0.7,10.3c0.5,5.8,2.2,10.8,7,14.9c6.6,5.7,14.4,8.1,22.6,11.4   c1.7-5.6,3.3-10.8,4.8-16.1c0.2-0.8,0-1.8-0.3-2.7c-1.5-6-3.7-11.9-4.6-18c-1.4-9.4-4.1-18.4-8.1-27c-9.5-20.2-24.6-34.3-46.2-41   c-2.4-0.7-5-1.2-7.5-1.5c-1.8-0.2-3,1.1-2.2,2.4c0.4,0.7,1.1,1.3,1.8,1.7c3.2,2.1,6.6,4.1,9.8,6.2c2.4,1.5,4.7,3.1,6.9,4.6   C359.5,64.6,355.9,68.5,352.4,72.5z M612.4,721.7c0.4,0,0.8,0,1.1,0c3.1-0.1,3-0.1,3.1-3.1c0.1-8.1-3.4-14.9-8-21.2   c-0.3-0.5-0.9-0.7-1.4-1.1c-0.2,0.1-0.4,0.3-0.7,0.4c0.4,1,0.8,1.9,1.1,2.9c1.6,4.3,3.5,8.6,4.6,13   C613,715.5,612.4,718.6,612.4,721.7z M520.8,209.4c1,0.2,1.5,0.6,2,0.5c8.3-0.9,16.6-2.5,25.2,0.2   C542.6,205.9,527.4,205.5,520.8,209.4z" /><path
         id="path4528"
         d="M360.4,470.4c-0.6,8-1.2,15.9-1.9,23.9c-0.6,7-1.1,14-2.3,20.9c-1.7,9.8-4.1,19.5-6.1,29.3c-2.7,13.1-5.8,26.1-7.8,39.3   c-1.7,11.1-2.1,22.5-0.7,33.8c0,0.2,0,0.4-0.1,0.7c-1.7,0.8-2.4,0.2-2.9-1.5c-2.6-9-2.8-18.2-2.4-27.4c0.7-16.9,3.8-33.5,8.2-49.8   c2.2-8.3,5.3-16.3,7.1-24.7c2.3-10.4,3.8-21,5.7-31.4c0.8-4.3,1.8-8.6,2.7-13C360,470.4,360.2,470.4,360.4,470.4z" /><path
         id="path4530"
         d="M471.6,155.9c0.7-3.8,1.2-7.9,2.3-11.8c1.3-4.5,3.8-4.9,8.4-4.8c2.6,0.1,3.8,2.4,4.4,4.7c1.4,5.3,1.9,10.7,1.1,16.1   c-0.4,2.7-1.2,5.4-2.4,7.9c-1.2,2.5-3.4,4.3-6.6,3.9c-3-0.3-4.5-2.5-5.2-5.1C472.7,163.4,472.3,159.8,471.6,155.9z" /><path
         id="path4532"
         d="M558.3,152.1c0.8-3.6,1.4-7.2,2.4-10.7c0.7-2.5,2.5-4.5,5.4-4.5c2.8,0,4.8,1.6,5.7,4.1c3,7.8,3,15.6-0.4,23.3   c-1,2.3-2.8,4.1-5.6,3.9c-2.7-0.2-4.3-2.1-5-4.4C559.8,160.1,559.2,156.1,558.3,152.1z" /></g></g></svg>